<svg width="3438" height="1524" viewBox="0 0 3438 1524" fill="none" xmlns="http://www.w3.org/2000/svg">
<path d="M2779.54 1131.57C3021.28 1131.57 3217.24 936.906 3217.24 696.783C3217.24 456.659 3021.28 262 2779.54 262C2537.81 262 2341.84 456.659 2341.84 696.783C2341.84 936.906 2537.81 1131.57 2779.54 1131.57Z" fill="#F3C041"/>
<path d="M254.87 827.218V522.87H519.217V827.218H447.044V588.739H327.044V827.218H254.87ZM591.148 827.218V522.87H713.104C735.857 522.87 756.002 526.854 773.539 534.826C791.074 542.798 804.844 554.32 814.844 569.391C824.987 584.32 830.061 602.363 830.061 623.522C830.061 655.696 819.698 680.478 798.974 697.87C778.394 715.261 749.191 723.957 711.365 723.957H663.322V827.218H591.148ZM663.322 663.522H709.626C724.698 663.522 736.509 660.55 745.061 654.609C753.611 648.522 757.887 638.522 757.887 624.609C757.887 610.696 753.465 600.624 744.626 594.391C735.931 588.015 724.409 584.826 710.061 584.826H663.322V663.522ZM1020.38 833.739C996.898 833.739 975.302 829.755 955.594 821.783C935.883 813.668 918.709 802.435 904.072 788.087C889.433 773.739 878.057 756.928 869.941 737.652C861.97 718.376 857.985 697.507 857.985 675.044C857.985 652.435 861.97 631.494 869.941 612.218C878.057 592.941 889.433 576.131 904.072 561.783C918.709 547.435 935.883 536.276 955.594 528.304C975.302 520.333 996.898 516.348 1020.38 516.348C1043.71 516.348 1065.23 520.407 1084.94 528.522C1104.8 536.637 1122.04 547.941 1136.68 562.435C1151.32 576.928 1162.62 593.811 1170.59 613.087C1178.71 632.217 1182.77 652.87 1182.77 675.044C1182.77 697.507 1178.71 718.376 1170.59 737.652C1162.62 756.928 1151.32 773.739 1136.68 788.087C1122.04 802.435 1104.8 813.668 1084.94 821.783C1065.23 829.755 1043.71 833.739 1020.38 833.739ZM1020.38 765.913C1037.04 765.913 1051.9 762.218 1064.94 754.826C1077.98 747.289 1088.27 736.711 1095.81 723.087C1103.35 709.463 1107.12 693.45 1107.12 675.044C1107.12 656.494 1103.35 640.478 1095.81 627C1088.27 613.376 1077.98 602.798 1064.94 595.261C1051.9 587.724 1037.04 583.957 1020.38 583.957C1003.85 583.957 988.998 587.724 975.811 595.261C962.767 602.798 952.476 613.376 944.941 627C937.404 640.478 933.637 656.494 933.637 675.044C933.637 693.45 937.404 709.463 944.941 723.087C952.476 736.711 962.767 747.289 975.811 754.826C988.998 762.218 1003.85 765.913 1020.38 765.913ZM1235.68 827.218V522.87H1449.59V585.478H1307.85V642H1426.77V699.826H1307.85V763.957H1451.33V827.218H1235.68ZM1511.66 827.218V522.87H1583.84V635.696H1602.1L1687.1 522.87H1777.1L1664.49 669.609L1791.66 827.218H1698.84L1601.23 701.565H1583.84V827.218H1511.66ZM1878.49 827.218V588.739H1797.4V522.87H2032.19V588.739H1951.1V827.218H1878.49ZM2093.23 833.087L2067.79 767.435C2088.08 763.811 2105.62 757.941 2120.4 749.826C2135.18 741.565 2148.37 730.115 2159.97 715.478L2057.36 522.87H2144.75L2202.14 638.957L2257.14 522.87H2340.83L2251.49 700.696C2236.56 730.696 2221.27 754.898 2205.62 773.304C2189.97 791.565 2173.01 805.407 2154.75 814.826C2136.49 824.102 2115.98 830.189 2093.23 833.087Z" fill="white"/>
<path d="M2444.46 903.739V765.696C2456.93 762.941 2467.22 758.667 2475.33 752.87C2483.46 747.072 2489.76 738.594 2494.24 727.435C2498.89 716.131 2502.07 700.985 2503.8 682C2505.7 663.015 2506.63 639.028 2506.63 610.044V522.87H2739.89V761.348H2789.02V903.739H2720.54V827.217H2512.93V903.739H2444.46ZM2574.89 610.044C2574.89 644.102 2573.09 673.594 2569.46 698.522C2565.98 723.304 2560.33 744.246 2552.5 761.348H2667.72V588.739H2574.89V610.044ZM2802.89 827.217L2916.59 522.87H3000.28L3115.07 827.217H3033.76L3012.24 765.478H2903.11L2882.02 827.217H2802.89ZM2919.41 705.261H2995.5L2957.24 600.044L2919.41 705.261Z" fill="white"/>
<path d="M290.102 940.087C292.537 940.087 294.218 940.55 295.146 941.479C295.61 942.059 296.015 943.45 296.363 945.652L296.189 949.479L295.842 958L295.494 963.913L295.146 967.739L294.624 976.087L294.45 980.087L294.276 982.696C294.276 984.783 294.682 985.826 295.494 985.826C296.537 985.826 298.508 983.624 301.407 979.218C302.914 977.015 304.537 974.407 306.276 971.392C308.015 968.376 309.987 964.898 312.189 960.957L318.624 948.957C320.595 945.594 323.088 943.913 326.102 943.913C328.073 943.913 329.581 944.609 330.624 946C331.32 947.392 331.668 950.233 331.668 954.522L331.494 961.305V967.218V969.652V976.435C331.494 980.609 332.073 984.028 333.233 986.696C334.508 989.246 337.349 990.522 341.755 990.522C343.262 990.522 345.001 990.115 346.972 989.305C349.059 988.376 351.03 987.276 352.885 986L356.711 982.696C358.334 981.305 359.842 980.494 361.233 980.261C361.581 980.376 361.871 980.494 362.102 980.609C362.45 980.724 362.914 981.015 363.494 981.479C364.073 981.942 364.421 982.637 364.537 983.565C364.537 986.696 361.291 990.233 354.798 994.174C348.305 998 342.624 999.913 337.755 999.913C331.378 999.913 327.088 997.363 324.885 992.261C323.378 987.739 322.624 979.913 322.624 968.783L322.798 962.522C322.798 960.435 322.566 959.333 322.102 959.218L321.059 960.087L319.842 961.652L316.711 967.739L312.885 975.565L308.711 982.522L301.407 993.652C298.624 997.478 295.378 999.392 291.668 999.392C289.117 999.392 287.32 998.348 286.276 996.261C285.928 995.333 285.755 993.479 285.755 990.696V985.131L285.928 979.913L285.581 974L285.928 968.435L287.494 958.522L287.842 955.913L287.494 954.522L286.798 953.131L286.102 952.261C284.595 952.261 282.566 955.333 280.015 961.478L276.015 975.218C273.928 984.376 270.682 991.044 266.276 995.218C262.798 998.696 259.088 1000.44 255.146 1000.44C252.595 1000.44 250.276 999.565 248.189 997.826C246.334 995.972 245.407 993.768 245.407 991.218C245.407 989.711 245.813 988.494 246.624 987.565C247.436 986.522 248.421 985.942 249.581 985.826C250.74 985.826 251.842 986.522 252.885 987.913L253.755 989.131C254.218 989.594 255.436 990 257.407 990.348C261.581 990.348 265.291 985.189 268.537 974.87L274.972 953.479C277.291 948.957 279.494 945.594 281.581 943.392C283.784 941.189 286.624 940.087 290.102 940.087ZM384.738 936.957C387.985 936.957 390.303 937.305 391.695 938L400.738 946.348L408.39 953.826C411.521 958.233 413.086 963.276 413.086 968.957C413.086 979.739 408.97 988.724 400.738 995.913C394.014 1001.71 387.869 1004.61 382.303 1004.61C373.26 1004.61 366.999 1000.78 363.521 993.131C361.898 989.189 361.086 983.624 361.086 976.435C361.086 969.594 361.26 964.957 361.608 962.522L362.999 956.087C364.39 949.826 366.883 945.072 370.477 941.826C374.072 938.581 378.825 936.957 384.738 936.957ZM383.869 946.522L379.869 948.087L375.521 951.218C374.477 952.261 373.666 953.652 373.086 955.392C372.507 957.015 372.043 958.87 371.695 960.957C371.347 963.044 371.173 965.015 371.173 966.87V971.044L371.695 975.739L372.912 979.044L373.434 982L372.912 984.609L372.564 986.87C372.564 988.609 373.318 990.233 374.825 991.739C376.448 993.131 378.535 993.826 381.086 993.826C385.84 993.826 390.477 991.624 394.999 987.218C400.448 982 403.173 975.565 403.173 967.913C403.173 965.711 402.535 963.392 401.26 960.957C400.333 958.522 399.115 956.494 397.608 954.87L391.695 949.826C388.448 947.855 385.84 946.755 383.869 946.522ZM468.978 939.044L471.239 939.392L475.413 940.087L478.196 940.609C478.891 941.305 479.587 944.202 480.283 949.305L480.457 958.87L480.63 969.652V977.305C480.63 981.942 481.035 985.305 481.848 987.392C482.774 989.479 484.746 990.522 487.761 990.522L490.37 990.348L493.326 989.131L496.978 987.739C497.904 987.739 498.659 988.202 499.239 989.131C499.935 989.942 500.457 991.276 500.804 993.131C500.804 994.755 499.354 996.435 496.457 998.174C493.674 999.565 490.196 1000.26 486.022 1000.26C479.413 1000.26 475.065 997.594 472.978 992.261C471.47 987.739 470.717 979.855 470.717 968.609V959.218L470.891 955.218V952.435C470.891 951.392 470.659 950.463 470.196 949.652C470.196 948.957 469.789 948.55 468.978 948.435C465.383 948.435 462.137 953.072 459.239 962.348L455.761 975.218C453.441 982.059 450.948 987.333 448.283 991.044C443.413 997.652 437.557 1000.96 430.717 1000.96C428.398 1000.96 426.137 999.913 423.934 997.826C421.731 995.739 420.63 993.537 420.63 991.218C420.63 989.826 421.151 988.668 422.195 987.739C423.354 986.696 424.862 986 426.717 985.652C427.876 985.652 428.803 986.463 429.499 988.087C430.311 989.594 432.282 990.348 435.412 990.348C436.804 990.348 438.311 989.537 439.935 987.913C442.485 985.015 444.92 980.028 447.239 972.957L455.065 948.957C458.196 942.348 462.833 939.044 468.978 939.044ZM533.176 936.957C536.422 936.957 538.741 937.305 540.133 938L549.176 946.348L556.828 953.826C559.959 958.233 561.524 963.276 561.524 968.957C561.524 979.739 557.409 988.724 549.176 995.913C542.452 1001.71 536.307 1004.61 530.741 1004.61C521.698 1004.61 515.437 1000.78 511.959 993.131C510.335 989.189 509.524 983.624 509.524 976.435C509.524 969.594 509.698 964.957 510.046 962.522L511.437 956.087C512.828 949.826 515.322 945.072 518.915 941.826C522.509 938.581 527.263 936.957 533.176 936.957ZM532.307 946.522L528.307 948.087L523.959 951.218C522.915 952.261 522.104 953.652 521.524 955.392C520.943 957.015 520.48 958.87 520.133 960.957C519.785 963.044 519.611 965.015 519.611 966.87V971.044L520.133 975.739L521.35 979.044L521.872 982L521.35 984.609L521.002 986.87C521.002 988.609 521.757 990.233 523.263 991.739C524.887 993.131 526.974 993.826 529.524 993.826C534.278 993.826 538.915 991.624 543.437 987.218C548.887 982 551.611 975.565 551.611 967.913C551.611 965.711 550.974 963.392 549.698 960.957C548.77 958.522 547.552 956.494 546.046 954.87L540.133 949.826C536.887 947.855 534.278 946.755 532.307 946.522ZM597.067 942.87C599.965 942.87 602.574 943.855 604.894 945.826C608.024 948.261 609.589 951.855 609.589 956.609C609.589 961.711 608.313 964.261 605.763 964.261C603.561 964.261 602.285 963.739 601.937 962.696L602.285 959.913L602.807 957.479C602.807 956.783 602.111 955.913 600.72 954.87L596.546 953.652C594.574 953.652 591.791 955.855 588.198 960.261C584.72 964.668 582.865 967.855 582.633 969.826C582.633 971.333 583.328 972.783 584.72 974.174C586.111 975.218 588.43 975.739 591.676 975.739C592.835 975.739 594.748 975.159 597.415 974L601.589 972.783L606.633 972.261C610.459 972.261 612.952 973.711 614.111 976.609C614.807 978.348 615.154 981.826 615.154 987.044V992.261V994.522C615.154 995.102 615.154 995.681 615.154 996.261C614.922 997.072 614.807 997.652 614.807 998L613.415 1005.65L613.067 1009.65V1011.04V1013.83L613.241 1016.96C613.241 1034.46 610.111 1049.83 603.85 1063.04C598.285 1074.41 592.778 1080.09 587.328 1080.09C580.139 1080.09 573.878 1078.93 568.546 1076.61L551.502 1067.91C550.226 1067.22 548.72 1066 546.98 1064.26C545.126 1062.64 542.922 1060.44 540.372 1057.65C535.617 1052.55 533.067 1049.07 532.72 1047.22L533.763 1044.09L534.285 1041.83L533.937 1039.91L533.415 1038.52C533.415 1037.83 533.878 1037.19 534.807 1036.61L538.285 1035.57C540.952 1035.57 542.865 1035.85 544.024 1036.44C545.067 1037.02 545.704 1037.94 545.937 1039.22L545.067 1041.48C544.372 1042.75 544.024 1043.68 544.024 1044.26C544.024 1048.09 548.778 1053.48 558.285 1060.44C567.676 1067.39 575.039 1070.87 580.372 1070.87C588.372 1070.87 594.691 1063.1 599.328 1047.57C600.952 1041.65 602.17 1036.15 602.98 1031.04C603.328 1028.49 603.617 1025.89 603.85 1023.22C604.083 1020.67 604.198 1018.06 604.198 1015.39L603.676 1006C603.676 1005.3 603.909 1004.49 604.372 1003.57L605.937 999.739L605.415 995.913L605.067 992.609L605.589 986C605.589 984.957 605.067 984.087 604.024 983.392C603.096 982.696 601.763 982.174 600.024 981.826L593.067 985.305C590.633 986.348 587.443 986.87 583.502 986.87C581.996 986.87 580.72 986.637 579.676 986.174C575.387 984.435 573.241 980.435 573.241 974.174C573.241 965.478 576.372 957.711 582.633 950.87C587.735 945.537 592.546 942.87 597.067 942.87ZM640.159 988.957L634.941 990.87L630.072 992.261C628.563 992.261 627.289 991.798 626.246 990.87C625.085 989.942 624.507 988.32 624.507 986C624.507 983.565 626.013 982.174 629.028 981.826C632.041 981.479 634.594 980.146 636.68 977.826C635.057 974.811 633.78 971.276 632.854 967.218C632.159 963.392 631.811 959.624 631.811 955.913C631.811 950.233 633.317 945.305 636.333 941.131C639.346 936.842 642.072 934.696 644.507 934.696C648.563 934.696 652.215 936.842 655.463 941.131C658.246 944.842 659.637 949.652 659.637 955.565C659.637 959.855 658.883 963.855 657.376 967.565C655.289 972.783 651.985 977.305 647.463 981.131C648.622 983.913 652.274 986.637 658.42 989.305C663.404 991.276 668.041 992.261 672.333 992.261C677.665 992.261 682.594 991.159 687.115 988.957C688.854 988.146 691.578 986.407 695.289 983.739L698.42 981.826L701.376 980.957C702.302 980.957 703.115 981.131 703.811 981.479C704.507 981.826 705.028 982.463 705.376 983.392C705.376 985.246 704.1 987.276 701.55 989.479L695.811 993.131L687.115 998.522C682.941 1000.26 675.637 1001.13 665.202 1001.13C661.143 1001.13 656.563 1000.09 651.463 998C647.172 995.913 643.404 992.898 640.159 988.957ZM644.159 970.348C645.202 969.652 645.954 968.55 646.42 967.044L647.811 963.218C648.97 959.159 649.55 956.202 649.55 954.348C649.55 951.913 649.028 950 647.985 948.609C647.057 947.218 645.898 946.522 644.507 946.522L643.463 947.392L642.246 948.957L640.68 952.261L640.507 954.348L640.68 957.652L640.507 960.957L640.68 963.218C640.911 964.376 641.376 965.42 642.072 966.348L644.159 970.348ZM733.12 938L735.207 938.87L736.772 939.565L739.902 939.218C741.759 939.218 744.424 940.957 747.902 944.435C750.454 947.218 752.25 950 753.293 952.783C756.772 951.044 759.672 948.842 761.989 946.174C763.38 944.55 765.12 943.739 767.207 943.739C769.178 943.739 770.802 943.972 772.076 944.435C773.352 944.783 774.163 945.479 774.511 946.522L773.989 950.348L772.25 956.609L769.12 966.174L775.207 961.131C777.178 959.507 778.917 958.696 780.424 958.696C781.585 958.696 782.628 958.929 783.554 959.392C785.641 954.407 788.715 950.407 792.772 947.392C796.83 944.376 801.526 942.87 806.859 942.87C808.946 942.87 810.685 943.739 812.076 945.479C813.467 947.218 814.163 948.842 814.163 950.348C814.163 952.202 813.352 953.537 811.728 954.348L808.946 954.696C808.135 954.696 807.265 954.407 806.337 953.826L803.902 952.957C801.004 952.957 798.396 954.115 796.076 956.435C793.178 959.333 791.728 962.985 791.728 967.392C791.728 969.131 791.728 970.348 791.728 971.044C791.846 971.739 792.135 972.783 792.598 974.174C793.178 976.724 793.989 978.87 795.033 980.609C796.076 982.233 797.759 984.029 800.076 986C802.628 987.855 805.294 988.783 808.076 988.783C810.163 988.783 811.787 988.202 812.946 987.044C814.107 985.885 815.902 985.305 818.337 985.305C819.498 985.305 820.424 985.711 821.12 986.522C821.815 987.218 822.337 988.55 822.685 990.522C822.685 992.376 821.411 994.233 818.859 996.087C816.424 997.479 813.352 998.174 809.641 998.174L805.989 998C805.063 998 803.498 997.652 801.294 996.957C799.207 996.146 796.889 994.755 794.337 992.783C790.28 989.652 787.498 986.115 785.989 982.174C784.946 977.652 784.309 975.276 784.076 975.044L781.989 968.783C780.25 970.174 778.337 971.044 776.25 971.392C774.28 971.624 771.324 975.392 767.38 982.696L765.12 992.957C764.424 998.174 762.163 1000.78 758.337 1000.78C756.946 1000.78 755.728 1000.32 754.685 999.392C753.759 998.348 753.12 997.015 752.772 995.392C752.772 993.652 753.467 990.522 754.859 986L757.989 975.565L758.685 970.174C759.033 967.044 759.787 963.972 760.946 960.957L762.859 956.609L762.163 957.479C760.657 958.985 757.989 960.724 754.163 962.696C753.467 967.913 752.367 972.202 750.859 975.565C749.467 978.929 746.628 982.755 742.337 987.044L731.207 997.305C725.526 1001.71 720.946 1003.91 717.467 1003.91C714.802 1003.91 712.657 1003.16 711.033 1001.65C709.411 1000.26 708.598 998.233 708.598 995.565C708.598 992.55 710.57 988.494 714.511 983.392C717.294 979.565 720.483 976.202 724.076 973.305L731.554 966.348C733.178 964.957 734.454 963.855 735.38 963.044C736.424 962.233 737.585 961.479 738.859 960.783L742.163 959.218L744.772 957.479C744.424 955.044 742.744 952.842 739.728 950.87C736.715 948.898 733.7 947.913 730.685 947.913C728.483 947.913 726.222 949.072 723.902 951.392L718.511 956.435L712.598 962.87C710.396 965.072 708.194 966.174 705.989 966.174C704.598 966.174 703.439 965.537 702.511 964.261L701.989 962.522C701.989 961.711 702.222 960.842 702.685 959.913C703.033 958.755 704.309 957.015 706.511 954.696C707.902 952.957 709.7 951.159 711.902 949.305L719.728 942.696C721.467 941.305 723.554 940.202 725.989 939.392C728.424 938.463 730.802 938 733.12 938ZM745.293 966C740.657 969.478 735.554 973.942 729.989 979.392C722.917 986.233 719.38 990.755 719.38 992.957L719.554 993.826L719.902 994.174C721.641 994.174 725.989 990.696 732.946 983.739C740.02 976.783 744.135 970.87 745.293 966ZM844.848 944.435C847.4 944.435 849.196 945.131 850.239 946.522C851.283 947.798 851.804 949.768 851.804 952.435L851.63 958.696V964.609L851.804 970C854.357 970 857.487 969.42 861.196 968.261C865.022 966.985 868.152 965.537 870.587 963.913C873.139 962.289 874.704 959.102 875.283 954.348C875.978 949.478 878.704 947.044 883.457 947.044C884.152 947.044 884.907 948.668 885.717 951.913L887.283 959.739C887.515 960.783 887.748 961.885 887.978 963.044C888.326 964.087 888.733 965.131 889.196 966.174L891.283 972.609L897.196 983.913C897.776 985.072 899.341 986.581 901.891 988.435C904.211 989.826 906.472 990.522 908.674 990.522C912.037 990.522 915.922 989.305 920.326 986.87L933.891 978.522L934.587 978.87C935.167 979.218 935.515 979.507 935.63 979.739L936.5 981.826C936.5 986 933.313 990.059 926.935 994C920.674 997.826 914.183 999.739 907.457 999.739C901.313 999.739 896.733 998.463 893.717 995.913C889.891 992.435 886.065 985.478 882.239 975.044L880.674 969.478C880.096 967.392 879.341 966.348 878.413 966.348L877.717 966.87L875.63 968.609C874.587 969.652 873.254 970.637 871.63 971.565L869.543 972.435L866.761 973.826L860.848 975.739L853.891 976.783L853.196 981.305L853.022 985.478L853.196 989.305L854.239 992.087L855.457 995.392L855.804 998.87L854.587 1000.09L852.326 1000.61C850.472 1000.61 848.848 1000.09 847.457 999.044C846.065 997.652 845.37 995.044 845.37 991.218V985.478C845.139 983.739 844.848 982.696 844.5 982.348L843.63 978.348L838.239 978.87C834.646 978.87 832.848 977.131 832.848 973.652C832.848 971.681 834.472 970.696 837.717 970.696L843.109 970.87V960.261L843.283 950.174L842.761 947.913L842.413 946.174C842.413 945.131 843.226 944.55 844.848 944.435ZM953.6 933.305C956.498 933.305 958.759 933.942 960.383 935.218L964.73 939.218L966.991 940.783C967.687 941.131 968.035 941.942 968.035 943.218L968.557 946.87C968.557 947.798 969.02 948.435 969.948 948.783C971.687 948.783 973.252 948.32 974.644 947.392L978.122 946C979.513 946 980.789 947.972 981.948 951.913C982.411 953.652 982.817 955.565 983.165 957.652C983.513 959.739 983.687 961.768 983.687 963.739L983.513 966.348C983.513 967.624 983.398 968.494 983.165 968.957L983.513 971.218L984.557 973.305L985.426 974.87V978.174L985.252 980.435V981.652L985.6 984.609C985.833 986.233 986.296 987.624 986.991 988.783L988.73 992.087L990.644 994.348L992.383 997.652L993.078 1001.13L992.557 1002.52L990.991 1003.74L989.252 1004.44H985.948L982.122 1001.3L979.339 997.826V993.826L977.948 990.87L976.73 987.913L975.513 983.392L975.339 981.305L975.513 978.87C975.513 977.711 975.281 976.494 974.817 975.218C974.47 973.826 973.889 972.957 973.078 972.609L972.209 972.957L971.165 973.652L969.252 975.565L966.644 976.261L963.513 975.913C962.817 975.913 962.063 976.261 961.252 976.957C960.557 977.537 959.513 979.218 958.122 982C957.426 984.087 956.383 985.652 954.991 986.696C952.789 988.32 949.774 990.928 945.948 994.522L942.296 997.652L939.339 998.348L936.557 998.174H932.557C931.165 997.826 929.485 996.376 927.513 993.826C925.659 991.159 924.73 988.783 924.73 986.696C924.73 985.652 925.078 983.798 925.774 981.131L927.687 974.348C929.659 964.494 931.802 956.783 934.122 951.218C939.224 939.276 945.715 933.305 953.6 933.305ZM951.339 943.739C948.324 943.739 945.6 946.059 943.165 950.696L939.861 960.435C939.513 961.594 939.05 962.463 938.47 963.044C937.889 963.624 937.367 966.289 936.904 971.044L935.339 981.131L934.991 983.913L935.513 986.174C935.861 987.218 936.557 987.739 937.6 987.739C940.267 987.739 945.02 983.913 951.861 976.261C958.702 968.494 962.122 962.463 962.122 958.174C962.122 955.276 961.311 952.435 959.687 949.652C957.485 945.711 954.702 943.739 951.339 943.739ZM1036.8 934.522C1040.98 934.522 1044.63 935.565 1047.76 937.652C1051.7 940.55 1053.67 945.131 1053.67 951.392C1053.67 956.146 1053.27 959.624 1052.46 961.826C1051.76 964.029 1050.72 965.942 1049.33 967.565C1052.8 968.261 1055.3 969.711 1056.8 971.913C1058.43 974.115 1059.24 976.609 1059.24 979.392L1058.72 986L1057.33 994.696L1057.5 997.305L1055.76 999.044L1053.15 999.913C1051.76 999.913 1050.54 999.392 1049.5 998.348C1049.04 997.652 1048.63 996.261 1048.28 994.174L1048.46 991.218L1049.85 987.739L1050.72 985.131L1051.24 982.174C1051.24 980.435 1050.6 978.87 1049.33 977.478C1048.4 976.202 1046.31 975.218 1043.07 974.522C1039.82 978.929 1035.12 982.985 1028.98 986.696L1015.59 992.957L1008.46 996.261C1004.4 998 1001.38 998.87 999.413 998.87C998.254 998.87 997.152 998.522 996.109 997.826C995.065 997.131 994.37 996.028 994.022 994.522C994.022 992.668 994.891 991.218 996.63 990.174C998.254 989.131 1000.23 988.609 1002.54 988.609L1006.2 988.435C1007.01 988.202 1007.76 987.739 1008.46 987.044L1010.37 985.652L1015.07 984.261C1017.73 983.565 1021.04 981.826 1024.98 979.044L1028.63 976.261L1032.8 972.435C1025.38 971.739 1019.99 970.289 1016.63 968.087C1014.78 966.696 1013.21 964.957 1011.93 962.87C1010.78 960.55 1010.2 958 1010.2 955.218C1010.2 950.348 1012.92 945.711 1018.37 941.305C1023.82 936.783 1029.97 934.522 1036.8 934.522ZM1033.85 964.609L1038.54 964.957C1039.93 964.957 1041.38 963.565 1042.89 960.783C1044.4 957.885 1045.15 955.507 1045.15 953.652C1045.15 949.246 1044.34 946.233 1042.72 944.609C1041.1 942.985 1038.78 942.174 1035.76 942.174C1032.4 942.174 1028.98 943.333 1025.5 945.652C1022.02 947.739 1020.28 950.463 1020.28 953.826C1020.28 958 1021.97 960.957 1025.33 962.696L1033.85 964.609ZM1136.74 951.739C1139.06 951.739 1141.03 953.479 1142.65 956.957C1144.04 960.435 1144.74 964.898 1144.74 970.348V976.609L1144.91 979.739L1144.74 983.392C1144.74 984.435 1145.09 985.131 1145.78 985.478H1147C1147.93 985.131 1149.55 982.348 1151.87 977.131C1151.87 974.696 1152.16 972.957 1152.74 971.913C1153.09 970.87 1155.41 969.305 1159.7 967.218L1163.17 965.652L1167.17 964.783C1169.73 964.783 1171.93 965.885 1173.78 968.087C1175.75 970.174 1177.96 974.289 1180.39 980.435L1183 986.696C1184.97 989.594 1187.64 991.044 1191 991.044C1193.09 991.044 1195.87 990.348 1199.35 988.957C1202.83 987.565 1205.78 985.826 1208.22 983.739L1211 981.131C1211.93 980.435 1212.91 979.913 1213.96 979.565L1217.09 978.87L1217.78 979.218C1218.36 979.565 1218.71 979.855 1218.83 980.087L1219.7 982.174C1219.7 983.913 1219 985.768 1217.61 987.739C1216.91 988.783 1215.64 989.885 1213.78 991.044L1204.91 997.305C1200.04 999.855 1194.65 1001.13 1188.74 1001.13C1183.41 1001.13 1179.29 999.159 1176.39 995.218C1175.35 993.711 1173.9 989.942 1172.04 983.913L1169.78 978.348C1168.62 976.029 1167.41 974.696 1166.13 974.348C1164.39 974.348 1162.65 975.218 1160.91 976.957C1159.52 978.581 1158.19 981.246 1156.91 984.957C1155.17 991.45 1153.03 996.087 1150.48 998.87C1148.97 1000.38 1147.17 1001.13 1145.09 1001.13C1142.65 1001.13 1140.62 1000.38 1139 998.87C1137.61 997.246 1136.91 995.159 1136.91 992.609V987.739L1135.87 984.435L1135.17 978.87V971.044L1135.52 966.522L1135.87 962V959.218L1135.17 957.305L1134.48 953.479C1134.48 952.435 1135.23 951.855 1136.74 951.739ZM1227.47 952.087C1229.91 952.087 1231.18 952.842 1231.3 954.348L1231.13 958.87L1230.43 966L1229.91 971.565L1230.26 973.305L1230.95 974.348H1233.04C1234.2 974 1235.82 972.957 1237.91 971.218L1243.47 965.826L1246.95 961.826C1247.77 961.015 1248.92 960.376 1250.43 959.913L1254.43 959.218L1256.69 958.522L1259.65 957.305C1261.73 956.261 1263.77 955.739 1265.73 955.739C1269.21 955.739 1272.4 957.015 1275.3 959.565C1278.2 962.115 1279.65 965.305 1279.65 969.131C1279.65 970.87 1279.53 971.972 1279.3 972.435L1278.26 975.218L1276.69 979.392L1275.47 983.392L1273.39 986.87L1270.95 990.522C1269.21 994.115 1267.94 996.202 1267.13 996.783L1264.34 998L1262.26 997.826L1260.17 998.348C1259.24 998.348 1258.37 998.755 1257.56 999.565C1256.75 1000.26 1255.71 1000.78 1254.43 1001.13L1250.43 1000.61L1246.08 998.87L1233.04 993.826C1231.42 996.376 1229.97 999.681 1228.69 1003.74C1227.18 1010.58 1226.43 1019.57 1226.43 1030.7V1045.13C1226.43 1051.39 1225.79 1055.57 1224.52 1057.65C1223.47 1060.09 1222.26 1061.3 1220.87 1061.3C1219.47 1061.3 1217.85 1060.84 1216 1059.91C1214.26 1059.1 1213.27 1058.06 1213.04 1056.78L1213.56 1054.17C1213.56 1051.74 1213.21 1050.06 1212.52 1049.13C1211.71 1048.67 1211.3 1046.99 1211.3 1044.09C1211.3 1041.19 1211.82 1038.52 1212.87 1036.09C1213.79 1034.35 1214.6 1031.62 1215.3 1027.91V1025.13L1214.95 1020.96L1215.3 1019.22C1215.53 1018.29 1216.11 1017.25 1217.04 1016.09C1218.08 1015.04 1218.78 1013.65 1219.13 1011.91V1005.48V1000.09L1219.3 995.565C1219.3 993.246 1219.53 990.755 1220 988.087L1220.87 975.565L1220.52 970.87L1220.17 964.783C1220.17 961.189 1220.98 958.233 1222.6 955.913C1224.34 953.479 1225.97 952.202 1227.47 952.087ZM1238.08 983.739C1239.47 985.826 1241.85 987.624 1245.21 989.131C1248.81 990.407 1251.59 991.044 1253.56 991.044C1256.34 991.044 1259.24 989.363 1262.26 986C1265.39 982.522 1267.3 979.392 1268 976.609L1268.17 974.696C1268.17 973.072 1268.05 971.972 1267.82 971.392C1267.82 970.233 1267.53 969.305 1266.95 968.609C1266.03 967.333 1264.52 966.696 1262.43 966.696C1257.56 966.696 1253.45 968.376 1250.08 971.739C1243.47 978.696 1239.47 982.696 1238.08 983.739ZM1313.92 936.957C1317.16 936.957 1319.48 937.305 1320.87 938L1329.92 946.348L1337.57 953.826C1340.7 958.233 1342.26 963.276 1342.26 968.957C1342.26 979.739 1338.15 988.724 1329.92 995.913C1323.19 1001.71 1317.05 1004.61 1311.48 1004.61C1302.44 1004.61 1296.18 1000.78 1292.7 993.131C1291.08 989.189 1290.26 983.624 1290.26 976.435C1290.26 969.594 1290.44 964.957 1290.78 962.522L1292.18 956.087C1293.57 949.826 1296.06 945.072 1299.65 941.826C1303.25 938.581 1308 936.957 1313.92 936.957ZM1313.05 946.522L1309.05 948.087L1304.7 951.218C1303.65 952.261 1302.84 953.652 1302.26 955.392C1301.68 957.015 1301.22 958.87 1300.87 960.957C1300.52 963.044 1300.35 965.015 1300.35 966.87V971.044L1300.87 975.739L1302.09 979.044L1302.61 982L1302.09 984.609L1301.74 986.87C1301.74 988.609 1302.5 990.233 1304 991.739C1305.63 993.131 1307.71 993.826 1310.26 993.826C1315.02 993.826 1319.65 991.624 1324.18 987.218C1329.63 982 1332.35 975.565 1332.35 967.913C1332.35 965.711 1331.71 963.392 1330.44 960.957C1329.51 958.522 1328.29 956.494 1326.78 954.87L1320.87 949.826C1317.63 947.855 1315.02 946.755 1313.05 946.522ZM1361.28 988.957L1356.07 990.87L1351.2 992.261C1349.69 992.261 1348.42 991.798 1347.37 990.87C1346.21 989.942 1345.63 988.32 1345.63 986C1345.63 983.565 1347.14 982.174 1350.15 981.826C1353.17 981.479 1355.72 980.146 1357.81 977.826C1356.18 974.811 1354.91 971.276 1353.98 967.218C1353.28 963.392 1352.94 959.624 1352.94 955.913C1352.94 950.233 1354.45 945.305 1357.46 941.131C1360.47 936.842 1363.2 934.696 1365.63 934.696C1369.69 934.696 1373.34 936.842 1376.59 941.131C1379.37 944.842 1380.76 949.652 1380.76 955.565C1380.76 959.855 1380.01 963.855 1378.5 967.565C1376.42 972.783 1373.11 977.305 1368.59 981.131C1369.75 983.913 1373.4 986.637 1379.55 989.305C1384.53 991.276 1389.17 992.261 1393.46 992.261C1398.79 992.261 1403.72 991.159 1408.24 988.957C1409.98 988.146 1412.71 986.407 1416.42 983.739L1419.55 981.826L1422.5 980.957C1423.43 980.957 1424.24 981.131 1424.94 981.479C1425.63 981.826 1426.15 982.463 1426.5 983.392C1426.5 985.246 1425.23 987.276 1422.68 989.479L1416.94 993.131L1408.24 998.522C1404.07 1000.26 1396.76 1001.13 1386.33 1001.13C1382.27 1001.13 1377.69 1000.09 1372.59 998C1368.3 995.913 1364.53 992.898 1361.28 988.957ZM1365.28 970.348C1366.33 969.652 1367.08 968.55 1367.55 967.044L1368.94 963.218C1370.1 959.159 1370.68 956.202 1370.68 954.348C1370.68 951.913 1370.15 950 1369.11 948.609C1368.18 947.218 1367.02 946.522 1365.63 946.522L1364.59 947.392L1363.37 948.957L1361.81 952.261L1361.63 954.348L1361.81 957.652L1361.63 960.957L1361.81 963.218C1362.04 964.376 1362.5 965.42 1363.2 966.348L1365.28 970.348ZM1428.33 941.652C1428.45 941.885 1428.57 942.233 1428.68 942.696C1428.92 943.159 1429.03 943.565 1429.03 943.913L1428.86 947.739V950.522L1428.68 952.783L1428.51 955.218V957.826L1428.16 961.131V967.044L1428.33 972.435L1429.38 979.044C1430.07 982.174 1431.06 983.798 1432.33 983.913C1435.47 983.913 1438.65 980.202 1441.9 972.783C1443.87 968.146 1445.55 965.131 1446.94 963.739C1448.33 962.233 1449.78 960.783 1451.29 959.392C1452.8 958 1454.6 956.435 1456.68 954.696C1462.71 949.711 1466.65 947.218 1468.51 947.218C1469.2 947.218 1470.07 947.913 1471.12 949.305C1472.16 950.696 1472.68 951.798 1472.68 952.609C1472.68 953.652 1471.41 955.218 1468.86 957.305L1461.2 963.044L1455.81 967.392C1454.19 969.594 1453.38 972.668 1453.38 976.609C1453.38 980.202 1454.02 983.102 1455.29 985.305C1457.61 989.246 1461.78 991.218 1467.81 991.218C1471.87 991.218 1476.16 990.059 1480.68 987.739C1483.7 986.115 1486.6 984.087 1489.38 981.652C1490.19 980.842 1491.23 980.087 1492.51 979.392C1493.9 978.696 1495.35 978.348 1496.86 978.348C1497.09 978.463 1497.32 978.581 1497.55 978.696C1497.9 978.811 1498.19 979.102 1498.42 979.565L1499.47 982.696L1499.12 983.565L1498.07 985.131L1492.68 989.826C1488.39 993.305 1484.45 996.028 1480.86 998C1475.87 1000.2 1470.88 1001.3 1465.9 1001.3C1461.73 1001.3 1457.26 1000.09 1452.51 997.652C1446.94 994.522 1444.16 990.174 1444.16 984.609C1436.51 994.348 1431.35 999.218 1428.68 999.218C1425.55 999.218 1423.64 997.363 1422.94 993.652L1420.68 981.479L1419.29 976.783L1418.94 973.826L1419.12 971.739L1419.29 968.957L1418.6 963.392L1418.94 958.696L1419.47 955.044V949.826C1419.47 946 1419.81 943.624 1420.51 942.696C1421.2 941.652 1422.54 941.131 1424.51 941.131C1426.36 941.131 1427.64 941.305 1428.33 941.652ZM1499.8 957.652C1502.35 957.652 1504.15 958.407 1505.2 959.913C1506.35 961.305 1506.93 963.798 1506.93 967.392V971.218C1506.93 972.724 1507.22 974.059 1507.8 975.218L1510.07 980.087C1510.76 981.711 1511.4 982.696 1511.98 983.044L1512.5 982.696L1514.07 980.435C1516.85 975.565 1520.03 971.333 1523.63 967.739C1528.62 962.755 1532.73 959.45 1535.98 957.826C1539.22 955.855 1541.95 954.87 1544.15 954.87C1545.08 954.87 1546.18 955.218 1547.46 955.913L1550.41 957.652C1552.85 958.929 1554.47 960.146 1555.28 961.305C1556.09 962.348 1556.67 963.624 1557.02 965.131L1556.67 969.131L1557.02 971.565L1557.89 975.739L1559.46 979.739L1561.2 981.652C1562.01 981.652 1563.46 980.668 1565.54 978.696L1570.07 974L1574.76 968.783L1577.37 967.218L1579.98 966L1584.33 963.739C1586.07 963.044 1588.09 962.696 1590.41 962.696C1593.89 962.696 1596.33 963.45 1597.72 964.957C1599.22 966.348 1599.98 968.783 1599.98 972.261V978.174C1599.98 981.652 1600.33 984.435 1601.02 986.522L1602.59 989.305L1605.37 991.392C1606.53 992.32 1607.11 993.479 1607.11 994.87C1607.11 995.681 1606.41 996.842 1605.02 998.348C1603.63 999.855 1602.3 1000.78 1601.02 1001.13C1598.59 1001.13 1596.67 1000.38 1595.28 998.87C1593.2 996.435 1591.63 995.044 1590.59 994.696L1587.8 993.478C1586.99 992.898 1586.59 991.739 1586.59 990C1586.59 989.42 1586.93 988.435 1587.63 987.044L1588.85 984.783L1589.02 982.87L1588.85 978.87V976.957V975.565L1588.5 974.348C1588.5 973.305 1588.03 972.724 1587.11 972.609C1585.14 972.609 1580.67 976.435 1573.72 984.087C1566.76 991.739 1562.3 995.739 1560.33 996.087C1555.11 996.087 1551.98 993.305 1550.93 987.739L1549.2 973.826C1548.73 972.55 1547.63 970.696 1545.89 968.261C1544.62 966.289 1543.34 965.131 1542.07 964.783C1541.37 964.783 1539.75 966.059 1537.2 968.609C1534.64 971.159 1532.73 973.479 1531.46 975.565L1528.15 979.913L1525.02 983.739L1521.72 989.305L1519.11 993.305C1517.6 995.276 1516.09 996.783 1514.59 997.826L1510.24 999.392C1505.37 999.392 1502.24 995.972 1500.85 989.131L1499.11 974.348L1495.8 962.174C1495.8 959.159 1497.14 957.652 1499.8 957.652ZM1590.76 917.479C1591.46 917.479 1591.86 917.942 1591.98 918.87C1591.98 921.189 1589.37 924.202 1584.15 927.913C1578.93 931.624 1571.75 935.044 1562.59 938.174L1557.02 940.783C1552.38 942.755 1545.08 943.739 1535.11 943.739L1531.46 943.565C1530.07 942.985 1529.37 941.711 1529.37 939.739C1529.37 938.233 1529.95 936.957 1531.11 935.913C1532.38 934.87 1534.01 934.348 1535.98 934.348L1542.93 934.696C1544.67 934.696 1546.07 934.637 1547.11 934.522C1548.15 934.407 1549.72 934.059 1551.8 933.479L1559.46 931.218L1567.98 928.087C1571.8 926.696 1576.62 924.376 1582.41 921.131C1586.93 918.696 1589.72 917.479 1590.76 917.479ZM1627.8 944.435C1630.35 944.435 1632.14 945.131 1633.19 946.522C1634.23 947.798 1634.75 949.768 1634.75 952.435L1634.58 958.696V964.609L1634.75 970C1637.3 970 1640.44 969.42 1644.14 968.261C1647.97 966.985 1651.1 965.537 1653.53 963.913C1656.09 962.289 1657.65 959.102 1658.23 954.348C1658.93 949.478 1661.65 947.044 1666.4 947.044C1667.1 947.044 1667.85 948.668 1668.67 951.913L1670.23 959.739C1670.46 960.783 1670.7 961.885 1670.93 963.044C1671.27 964.087 1671.68 965.131 1672.14 966.174L1674.23 972.609L1680.14 983.913C1680.72 985.072 1682.29 986.581 1684.84 988.435C1687.16 989.826 1689.42 990.522 1691.62 990.522C1694.98 990.522 1698.87 989.305 1703.27 986.87L1716.84 978.522L1717.54 978.87C1718.12 979.218 1718.46 979.507 1718.58 979.739L1719.45 981.826C1719.45 986 1716.26 990.059 1709.88 994C1703.62 997.826 1697.13 999.739 1690.4 999.739C1684.26 999.739 1679.68 998.463 1676.67 995.913C1672.84 992.435 1669.01 985.478 1665.19 975.044L1663.62 969.478C1663.04 967.392 1662.29 966.348 1661.36 966.348L1660.67 966.87L1658.58 968.609C1657.53 969.652 1656.2 970.637 1654.58 971.565L1652.49 972.435L1649.71 973.826L1643.8 975.739L1636.84 976.783L1636.14 981.305L1635.97 985.478L1636.14 989.305L1637.19 992.087L1638.4 995.392L1638.75 998.87L1637.53 1000.09L1635.27 1000.61C1633.42 1000.61 1631.8 1000.09 1630.4 999.044C1629.01 997.652 1628.32 995.044 1628.32 991.218V985.478C1628.09 983.739 1627.8 982.696 1627.45 982.348L1626.58 978.348L1621.19 978.87C1617.59 978.87 1615.8 977.131 1615.8 973.652C1615.8 971.681 1617.42 970.696 1620.67 970.696L1626.06 970.87V960.261L1626.23 950.174L1625.71 947.913L1625.36 946.174C1625.36 945.131 1626.17 944.55 1627.8 944.435ZM1736.55 933.305C1739.45 933.305 1741.71 933.942 1743.33 935.218L1747.68 939.218L1749.94 940.783C1750.64 941.131 1750.98 941.942 1750.98 943.218L1751.5 946.87C1751.5 947.798 1751.97 948.435 1752.9 948.783C1754.63 948.783 1756.2 948.32 1757.59 947.392L1761.07 946C1762.46 946 1763.74 947.972 1764.9 951.913C1765.36 953.652 1765.77 955.565 1766.11 957.652C1766.46 959.739 1766.63 961.768 1766.63 963.739L1766.46 966.348C1766.46 967.624 1766.35 968.494 1766.11 968.957L1766.46 971.218L1767.5 973.305L1768.37 974.87V978.174L1768.2 980.435V981.652L1768.55 984.609C1768.78 986.233 1769.24 987.624 1769.94 988.783L1771.68 992.087L1773.59 994.348L1775.33 997.652L1776.03 1001.13L1775.5 1002.52L1773.94 1003.74L1772.2 1004.44H1768.9L1765.07 1001.3L1762.29 997.826V993.826L1760.9 990.87L1759.68 987.913L1758.46 983.392L1758.29 981.305L1758.46 978.87C1758.46 977.711 1758.23 976.494 1757.77 975.218C1757.42 973.826 1756.84 972.957 1756.03 972.609L1755.16 972.957L1754.11 973.652L1752.2 975.565L1749.59 976.261L1746.46 975.913C1745.77 975.913 1745.01 976.261 1744.2 976.957C1743.5 977.537 1742.46 979.218 1741.07 982C1740.37 984.087 1739.33 985.652 1737.94 986.696C1735.74 988.32 1732.72 990.928 1728.9 994.522L1725.24 997.652L1722.29 998.348L1719.5 998.174H1715.5C1714.11 997.826 1712.43 996.376 1710.46 993.826C1708.61 991.159 1707.68 988.783 1707.68 986.696C1707.68 985.652 1708.03 983.798 1708.72 981.131L1710.63 974.348C1712.61 964.494 1714.75 956.783 1717.07 951.218C1722.17 939.276 1728.66 933.305 1736.55 933.305ZM1734.29 943.739C1731.27 943.739 1728.55 946.059 1726.11 950.696L1722.81 960.435C1722.46 961.594 1722 962.463 1721.42 963.044C1720.84 963.624 1720.32 966.289 1719.85 971.044L1718.29 981.131L1717.94 983.913L1718.46 986.174C1718.81 987.218 1719.5 987.739 1720.55 987.739C1723.22 987.739 1727.97 983.913 1734.81 976.261C1741.65 968.494 1745.07 962.463 1745.07 958.174C1745.07 955.276 1744.26 952.435 1742.63 949.652C1740.43 945.711 1737.65 943.739 1734.29 943.739ZM1819.75 934.522C1823.93 934.522 1827.58 935.565 1830.71 937.652C1834.65 940.55 1836.62 945.131 1836.62 951.392C1836.62 956.146 1836.22 959.624 1835.4 961.826C1834.71 964.029 1833.67 965.942 1832.27 967.565C1835.75 968.261 1838.25 969.711 1839.75 971.913C1841.38 974.115 1842.19 976.609 1842.19 979.392L1841.67 986L1840.27 994.696L1840.45 997.305L1838.71 999.044L1836.1 999.913C1834.71 999.913 1833.49 999.392 1832.45 998.348C1831.98 997.652 1831.58 996.261 1831.23 994.174L1831.4 991.218L1832.8 987.739L1833.67 985.131L1834.19 982.174C1834.19 980.435 1833.55 978.87 1832.27 977.478C1831.35 976.202 1829.26 975.218 1826.01 974.522C1822.77 978.929 1818.07 982.985 1811.93 986.696L1798.53 992.957L1791.4 996.261C1787.35 998 1784.33 998.87 1782.36 998.87C1781.2 998.87 1780.1 998.522 1779.06 997.826C1778.01 997.131 1777.32 996.028 1776.97 994.522C1776.97 992.668 1777.84 991.218 1779.58 990.174C1781.2 989.131 1783.17 988.609 1785.49 988.609L1789.14 988.435C1789.96 988.202 1790.71 987.739 1791.4 987.044L1793.32 985.652L1798.01 984.261C1800.68 983.565 1803.98 981.826 1807.93 979.044L1811.58 976.261L1815.75 972.435C1808.33 971.739 1802.94 970.289 1799.58 968.087C1797.72 966.696 1796.16 964.957 1794.88 962.87C1793.72 960.55 1793.14 958 1793.14 955.218C1793.14 950.348 1795.87 945.711 1801.32 941.305C1806.77 936.783 1812.91 934.522 1819.75 934.522ZM1816.8 964.609L1821.49 964.957C1822.88 964.957 1824.33 963.565 1825.84 960.783C1827.35 957.885 1828.1 955.507 1828.1 953.652C1828.1 949.246 1827.29 946.233 1825.67 944.609C1824.04 942.985 1821.72 942.174 1818.71 942.174C1815.35 942.174 1811.93 943.333 1808.45 945.652C1804.97 947.739 1803.23 950.463 1803.23 953.826C1803.23 958 1804.91 960.957 1808.27 962.696L1816.8 964.609ZM1927.17 938.87C1928.9 938.87 1930.12 939.276 1930.82 940.087C1931.63 940.783 1932.03 941.826 1932.03 943.218L1931.69 946.348V952.435L1931.17 959.218V967.044L1930.82 976.609L1930.99 979.913C1930.99 981.42 1931.28 983.159 1931.86 985.131C1932.44 987.102 1933.08 988.087 1933.77 988.087L1935.17 986.174L1938.64 980.087L1942.12 973.479L1944.03 970.348L1946.3 965.479L1947.51 962.174C1948.21 960.32 1948.9 958.811 1949.6 957.652C1950.3 956.376 1951.11 955.276 1952.03 954.348L1953.95 951.218L1956.04 947.044L1957.95 941.305C1958.64 939.681 1960.04 938.87 1962.12 938.87C1963.86 938.87 1965.2 939.392 1966.12 940.435L1966.82 943.392L1966.64 946.348V952.435L1966.12 959.218V967.044C1966.12 968.668 1966.12 970.233 1966.12 971.739C1966.12 973.246 1966.24 974.696 1966.47 976.087L1967.51 980.261C1968.44 985.826 1969.89 988.609 1971.86 988.609C1972.56 988.609 1973.77 987.044 1975.51 983.913L1982.82 966.87L1988.73 952.261C1990.47 948.087 1992.96 946 1996.21 946C2000.38 946 2002.99 947.913 2004.04 951.739C2004.96 959.739 2006.07 966.637 2007.34 972.435C2008.04 977.072 2008.9 980.842 2009.95 983.739C2011.92 989.537 2014.41 992.435 2017.43 992.435C2018.93 992.435 2020.56 991.739 2022.3 990.348L2028.56 983.392C2029.25 983.044 2030.24 982.755 2031.51 982.522C2031.86 982.637 2032.15 982.755 2032.38 982.87C2032.73 982.87 2033.25 983.159 2033.95 983.739C2034.76 984.202 2035.17 985.478 2035.17 987.565C2035.17 989.537 2032.67 992.494 2027.69 996.435C2022.82 1000.26 2019.34 1002.17 2017.25 1002.17C2013.2 1002.17 2009.66 1000.78 2006.64 998C2002.82 994.174 2000.09 986.696 1998.47 975.565L1996.56 966.348L1996.9 963.218L1997.08 960.783C1997.08 959.044 1996.5 958.174 1995.34 958.174L1994.64 959.044L1993.25 962C1990.93 969.42 1988.96 975.159 1987.34 979.218C1985.6 984.32 1983.63 988.376 1981.43 991.392C1977.83 996.376 1974.12 998.87 1970.3 998.87C1966.01 998.87 1962.59 994.755 1960.03 986.522C1958.41 980.376 1957.6 974.348 1957.6 968.435L1957.77 963.044C1957.77 961.305 1957.89 960.202 1958.12 959.739L1957.6 962.696L1955.34 966.522L1953.43 969.826L1948.21 981.131C1945.54 987.044 1943.4 991.044 1941.77 993.131C1938.64 997.885 1935.57 1000.26 1932.56 1000.26C1929.77 1000.26 1927.34 998.059 1925.25 993.652C1923.17 989.246 1922.12 983.102 1922.12 975.218L1922.64 968.435L1922.47 959.565L1922.82 954.522L1922.64 949.305V944.609C1922.64 942.174 1922.99 940.609 1923.69 939.913C1924.38 939.218 1925.54 938.87 1927.17 938.87ZM2013.25 1011.57C2011.51 1012.49 2009.08 1013.19 2005.95 1013.65L1998.99 1015.22L1994.12 1016.96L1990.64 1017.83L1985.43 1018.87L1982.82 1019.22L1979.51 1020.26L1968.38 1023.91C1965.02 1024.96 1961.14 1026.7 1956.73 1029.13C1956.15 1029.48 1955.11 1029.94 1953.6 1030.52C1952.09 1031.1 1950.88 1031.39 1949.95 1031.39C1949.02 1031.39 1948.09 1030.87 1947.17 1029.83C1946.24 1028.78 1945.6 1027.33 1945.25 1025.48C1945.25 1023.74 1947.86 1021.65 1953.08 1019.22C1957.72 1017.36 1963.63 1015.91 1970.82 1014.87L1989.6 1009.83C1992.15 1009.36 1994.99 1008.96 1998.12 1008.61C2001.25 1008.26 2004.21 1008.09 2006.99 1008.09C2009.66 1008.09 2011.69 1008.44 2013.08 1009.13C2013.54 1009.83 2013.83 1010.41 2013.95 1010.87L2013.25 1011.57ZM2039.24 941.652C2039.35 941.885 2039.47 942.233 2039.59 942.696C2039.82 943.159 2039.93 943.565 2039.93 943.913L2039.76 947.739V950.522L2039.59 952.783L2039.41 955.218V957.826L2039.07 961.131V967.044L2039.24 972.435L2040.28 979.044C2040.98 982.174 2041.96 983.798 2043.24 983.913C2046.37 983.913 2049.56 980.202 2052.8 972.783C2054.77 968.146 2056.46 965.131 2057.85 963.739C2059.24 962.233 2060.69 960.783 2062.2 959.392C2063.7 958 2065.5 956.435 2067.59 954.696C2073.62 949.711 2077.56 947.218 2079.41 947.218C2080.11 947.218 2080.98 947.913 2082.02 949.305C2083.07 950.696 2083.59 951.798 2083.59 952.609C2083.59 953.652 2082.31 955.218 2079.76 957.305L2072.11 963.044L2066.72 967.392C2065.09 969.594 2064.28 972.668 2064.28 976.609C2064.28 980.202 2064.92 983.102 2066.2 985.305C2068.51 989.246 2072.69 991.218 2078.72 991.218C2082.77 991.218 2087.07 990.059 2091.59 987.739C2094.6 986.115 2097.5 984.087 2100.28 981.652C2101.09 980.842 2102.14 980.087 2103.41 979.392C2104.8 978.696 2106.25 978.348 2107.76 978.348C2107.99 978.463 2108.22 978.581 2108.46 978.696C2108.8 978.811 2109.09 979.102 2109.33 979.565L2110.37 982.696L2110.02 983.565L2108.98 985.131L2103.59 989.826C2099.3 993.305 2095.35 996.028 2091.76 998C2086.77 1000.2 2081.79 1001.3 2076.8 1001.3C2072.63 1001.3 2068.17 1000.09 2063.41 997.652C2057.85 994.522 2055.07 990.174 2055.07 984.609C2047.41 994.348 2042.25 999.218 2039.59 999.218C2036.46 999.218 2034.54 997.363 2033.85 993.652L2031.59 981.479L2030.2 976.783L2029.85 973.826L2030.02 971.739L2030.2 968.957L2029.5 963.392L2029.85 958.696L2030.37 955.044V949.826C2030.37 946 2030.72 943.624 2031.41 942.696C2032.11 941.652 2033.44 941.131 2035.41 941.131C2037.27 941.131 2038.54 941.305 2039.24 941.652ZM2128.79 936.957C2132.04 936.957 2134.36 937.305 2135.75 938L2144.79 946.348L2152.45 953.826C2155.58 958.233 2157.14 963.276 2157.14 968.957C2157.14 979.739 2153.03 988.724 2144.79 995.913C2138.07 1001.71 2131.92 1004.61 2126.36 1004.61C2117.32 1004.61 2111.05 1000.78 2107.58 993.131C2105.95 989.189 2105.14 983.624 2105.14 976.435C2105.14 969.594 2105.32 964.957 2105.66 962.522L2107.05 956.087C2108.45 949.826 2110.94 945.072 2114.53 941.826C2118.13 938.581 2122.88 936.957 2128.79 936.957ZM2127.92 946.522L2123.92 948.087L2119.58 951.218C2118.53 952.261 2117.72 953.652 2117.14 955.392C2116.56 957.015 2116.1 958.87 2115.75 960.957C2115.4 963.044 2115.23 965.015 2115.23 966.87V971.044L2115.75 975.739L2116.97 979.044L2117.49 982L2116.97 984.609L2116.62 986.87C2116.62 988.609 2117.37 990.233 2118.88 991.739C2120.5 993.131 2122.59 993.826 2125.14 993.826C2129.9 993.826 2134.53 991.624 2139.05 987.218C2144.5 982 2147.23 975.565 2147.23 967.913C2147.23 965.711 2146.59 963.392 2145.32 960.957C2144.39 958.522 2143.17 956.494 2141.66 954.87L2135.75 949.826C2132.5 947.855 2129.9 946.755 2127.92 946.522ZM2213.03 939.044L2215.29 939.392L2219.47 940.087L2222.25 940.609C2222.95 941.305 2223.64 944.202 2224.34 949.305L2224.51 958.87L2224.68 969.652V977.305C2224.68 981.942 2225.09 985.305 2225.9 987.392C2226.83 989.479 2228.8 990.522 2231.82 990.522L2234.42 990.348L2237.38 989.131L2241.03 987.739C2241.96 987.739 2242.72 988.202 2243.29 989.131C2243.99 989.942 2244.51 991.276 2244.86 993.131C2244.86 994.755 2243.41 996.435 2240.51 998.174C2237.73 999.565 2234.25 1000.26 2230.08 1000.26C2223.47 1000.26 2219.12 997.594 2217.03 992.261C2215.53 987.739 2214.77 979.855 2214.77 968.609V959.218L2214.95 955.218V952.435C2214.95 951.392 2214.72 950.463 2214.25 949.652C2214.25 948.957 2213.85 948.55 2213.03 948.435C2209.44 948.435 2206.19 953.072 2203.29 962.348L2199.82 975.218C2197.5 982.059 2195 987.333 2192.34 991.044C2187.47 997.652 2181.61 1000.96 2174.77 1000.96C2172.45 1000.96 2170.19 999.913 2167.99 997.826C2165.79 995.739 2164.69 993.537 2164.69 991.218C2164.69 989.826 2165.21 988.668 2166.25 987.739C2167.41 986.696 2168.92 986 2170.77 985.652C2171.93 985.652 2172.86 986.463 2173.55 988.087C2174.37 989.594 2176.34 990.348 2179.47 990.348C2180.86 990.348 2182.37 989.537 2183.99 987.913C2186.54 985.015 2188.98 980.028 2191.29 972.957L2199.12 948.957C2202.25 942.348 2206.89 939.044 2213.03 939.044ZM2280.53 933.305C2283.43 933.305 2285.7 933.942 2287.32 935.218L2291.67 939.218L2293.93 940.783C2294.62 941.131 2294.97 941.942 2294.97 943.218L2295.49 946.87C2295.49 947.798 2295.96 948.435 2296.88 948.783C2298.62 948.783 2300.19 948.32 2301.58 947.392L2305.06 946C2306.45 946 2307.72 947.972 2308.88 951.913C2309.35 953.652 2309.75 955.565 2310.1 957.652C2310.45 959.739 2310.62 961.768 2310.62 963.739L2310.45 966.348C2310.45 967.624 2310.33 968.494 2310.1 968.957L2310.45 971.218L2311.49 973.305L2312.36 974.87V978.174L2312.19 980.435V981.652L2312.53 984.609C2312.77 986.233 2313.23 987.624 2313.93 988.783L2315.67 992.087L2317.58 994.348L2319.32 997.652L2320.01 1001.13L2319.49 1002.52L2317.93 1003.74L2316.19 1004.44H2312.88L2309.06 1001.3L2306.27 997.826V993.826L2304.88 990.87L2303.67 987.913L2302.45 983.392L2302.27 981.305L2302.45 978.87C2302.45 977.711 2302.22 976.494 2301.75 975.218C2301.4 973.826 2300.83 972.957 2300.01 972.609L2299.14 972.957L2298.1 973.652L2296.19 975.565L2293.58 976.261L2290.45 975.913C2289.75 975.913 2289 976.261 2288.19 976.957C2287.49 977.537 2286.45 979.218 2285.06 982C2284.36 984.087 2283.32 985.652 2281.93 986.696C2279.72 988.32 2276.71 990.928 2272.88 994.522L2269.23 997.652L2266.27 998.348L2263.49 998.174H2259.49C2258.1 997.826 2256.42 996.376 2254.45 993.826C2252.59 991.159 2251.67 988.783 2251.67 986.696C2251.67 985.652 2252.01 983.798 2252.71 981.131L2254.62 974.348C2256.59 964.494 2258.74 956.783 2261.06 951.218C2266.16 939.276 2272.65 933.305 2280.53 933.305ZM2278.27 943.739C2275.26 943.739 2272.54 946.059 2270.1 950.696L2266.8 960.435C2266.45 961.594 2265.98 962.463 2265.4 963.044C2264.83 963.624 2264.3 966.289 2263.84 971.044L2262.27 981.131L2261.93 983.913L2262.45 986.174C2262.8 987.218 2263.49 987.739 2264.53 987.739C2267.2 987.739 2271.96 983.913 2278.8 976.261C2285.64 968.494 2289.06 962.463 2289.06 958.174C2289.06 955.276 2288.25 952.435 2286.62 949.652C2284.42 945.711 2281.64 943.739 2278.27 943.739Z" fill="white"/>
</svg>
