<svg width="17" height="17" viewBox="0 0 17 17" fill="none" xmlns="http://www.w3.org/2000/svg">
<path d="M14.859 8.255C14.859 11.9023 11.9023 14.859 8.255 14.859C4.60771 14.859 1.651 11.9023 1.651 8.255C1.651 4.60771 4.60771 1.651 8.255 1.651C11.9023 1.651 14.859 4.60771 14.859 8.255ZM8.255 16.51C12.8141 16.51 16.51 12.8141 16.51 8.255C16.51 3.69589 12.8141 0 8.255 0C3.69589 0 0 3.69589 0 8.255C0 12.8141 3.69589 16.51 8.255 16.51ZM8.55086 6.09422C7.7479 6.42818 6.14321 7.11944 3.73671 8.16791C3.34592 8.32327 3.14123 8.47533 3.12259 8.62392C3.09109 8.8752 3.40569 8.97409 3.8341 9.10881C3.89237 9.12714 3.95276 9.14613 4.01465 9.16627C4.43614 9.30322 5.00312 9.46353 5.29786 9.46989C5.56522 9.47567 5.86363 9.36546 6.19308 9.13919C8.44156 7.62143 9.60222 6.85429 9.67511 6.83778C9.72654 6.82606 9.79778 6.81145 9.84599 6.85429C9.89428 6.89722 9.88949 6.97845 9.88445 7.00024C9.85325 7.13315 8.6183 8.28125 7.9792 8.87536C7.78868 9.05252 7.60294 9.23347 7.41571 9.41392C7.02418 9.79134 6.73055 10.0744 7.43198 10.5367C8.14306 11.0053 8.85951 11.473 9.55302 11.9674C9.89502 12.2112 10.2024 12.4303 10.5819 12.3954C10.8026 12.3751 11.0304 12.1676 11.1461 11.549C11.4196 10.087 11.9571 6.91942 12.0814 5.61409C12.0923 5.49973 12.0786 5.35337 12.0676 5.28912C12.0566 5.22487 12.0336 5.13332 11.9501 5.06556C11.8511 4.9853 11.6985 4.96838 11.6302 4.96958C11.3197 4.97506 10.8434 5.14069 8.55086 6.09422Z" fill="white"/>
</svg>
