<svg width="1500" height="1500" viewBox="0 0 1500 1500" fill="none" xmlns="http://www.w3.org/2000/svg">
<path d="M258.266 753.5V609.125H383.666V753.5H349.428V640.372H292.503V753.5H258.266ZM417.788 753.5V609.125H475.641C486.435 609.125 495.991 611.016 504.31 614.797C512.628 618.578 519.159 624.044 523.903 631.194C528.716 638.275 531.122 646.834 531.122 656.872C531.122 672.134 526.206 683.891 516.375 692.141C506.613 700.391 492.76 704.516 474.816 704.516H452.025V753.5H417.788ZM452.025 675.847H473.991C481.141 675.847 486.744 674.437 490.8 671.619C494.856 668.731 496.884 663.988 496.884 657.388C496.884 650.788 494.788 646.009 490.594 643.053C486.469 640.028 481.003 638.516 474.197 638.516H452.025V675.847ZM621.403 756.594C610.266 756.594 600.022 754.703 590.672 750.922C581.322 747.072 573.175 741.744 566.231 734.938C559.287 728.131 553.891 720.156 550.041 711.012C546.259 701.869 544.369 691.969 544.369 681.313C544.369 670.588 546.259 660.653 550.041 651.509C553.891 642.366 559.287 634.391 566.231 627.584C573.175 620.778 581.322 615.484 590.672 611.703C600.022 607.922 610.266 606.031 621.403 606.031C632.472 606.031 642.681 607.956 652.031 611.806C661.45 615.656 669.631 621.019 676.575 627.894C683.519 634.769 688.881 642.778 692.663 651.922C696.513 660.997 698.438 670.794 698.438 681.313C698.438 691.969 696.513 701.869 692.663 711.012C688.881 720.156 683.519 728.131 676.575 734.938C669.631 741.744 661.45 747.072 652.031 750.922C642.681 754.703 632.472 756.594 621.403 756.594ZM621.403 724.419C629.309 724.419 636.356 722.666 642.544 719.159C648.731 715.584 653.613 710.566 657.188 704.103C660.763 697.641 662.55 690.044 662.55 681.313C662.55 672.513 660.763 664.916 657.188 658.522C653.613 652.059 648.731 647.041 642.544 643.466C636.356 639.891 629.309 638.103 621.403 638.103C613.566 638.103 606.519 639.891 600.263 643.466C594.075 647.041 589.194 652.059 585.619 658.522C582.044 664.916 580.256 672.513 580.256 681.313C580.256 690.044 582.044 697.641 585.619 704.103C589.194 710.566 594.075 715.584 600.263 719.159C606.519 722.666 613.566 724.419 621.403 724.419ZM723.537 753.5V609.125H825.012V638.825H757.774V665.638H814.184V693.069H757.774V723.491H825.837V753.5H723.537ZM854.457 753.5V609.125H888.695V662.647H897.357L937.679 609.125H980.373L926.954 678.734L987.282 753.5H943.248L896.945 693.894H888.695V753.5H854.457ZM1028.47 753.5V640.372H990.005V609.125H1101.38V640.372H1062.91V753.5H1028.47ZM1130.34 756.284L1118.27 725.141C1127.9 723.422 1136.21 720.638 1143.23 716.788C1150.24 712.869 1156.5 707.438 1162 700.494L1113.32 609.125H1154.78L1182 664.194L1208.09 609.125H1247.8L1205.41 693.481C1198.33 707.712 1191.08 719.194 1183.65 727.925C1176.23 736.587 1168.18 743.153 1159.52 747.622C1150.86 752.022 1141.13 754.909 1130.34 756.284Z" fill="white"/>
<path d="M399.513 1101.1V970.131C411.338 967.519 421.1 963.463 428.8 957.963C436.5 952.462 442.481 944.419 446.744 933.831C451.144 923.106 454.169 908.738 455.819 890.725C457.606 872.713 458.5 849.956 458.5 822.456V739.75H679.806V966.006H726.419V1101.1H661.45V1028.5H464.481V1101.1H399.513ZM523.263 822.456C523.263 854.769 521.544 882.75 518.106 906.4C514.806 929.912 509.444 949.781 502.019 966.006H611.331V802.244H523.263V822.456ZM739.574 1028.5L847.442 739.75H926.849L1035.75 1028.5H958.611L938.192 969.925H834.655L814.649 1028.5H739.574ZM850.124 912.794H922.311L886.011 812.969L850.124 912.794Z" fill="#F3C041"/>
</svg>
