<svg width="17" height="17" viewBox="0 0 17 17" fill="none" xmlns="http://www.w3.org/2000/svg">
<path d="M2.59496 2.59649C2.28005 2.91632 2.072 3.36565 1.95767 4.21987C1.83934 5.10388 1.83742 6.27582 1.83742 7.96161V8.54836C1.83742 10.2317 1.83934 11.4024 1.95767 12.2865C2.07198 13.1406 2.28013 13.5923 2.5965 13.915C2.91632 14.2299 3.36565 14.4381 4.21986 14.5524C5.10387 14.6706 6.27581 14.6726 7.96165 14.6726H8.5484C10.2316 14.6726 11.4025 14.6706 12.2864 14.5524C13.1405 14.4381 13.5922 14.2299 13.915 13.9135C14.23 13.5937 14.438 13.1444 14.5523 12.2902C14.6707 11.4061 14.6726 10.2342 14.6726 8.54836V7.96161C14.6726 6.27832 14.6707 5.10756 14.5523 4.22353C14.438 3.36943 14.2299 2.91773 13.9135 2.59495C13.5936 2.28004 13.1443 2.072 12.2901 1.95767C11.4061 1.83935 10.2342 1.83742 8.5484 1.83742H7.96165C6.27831 1.83742 5.10755 1.83935 4.22353 1.95767C3.36943 2.07198 2.91774 2.28013 2.59496 2.59649ZM7.96165 0.00382446H8.5484C9.87252 0.00382446 11.2176 -0.0358363 12.5333 0.140281C13.5936 0.282192 14.4913 0.58634 15.2077 1.2961L15.2154 1.30373C15.9237 2.02217 16.2278 2.91986 16.3697 3.98029C16.5457 5.29495 16.5062 6.63867 16.5062 7.96161V8.54836C16.5062 9.87258 16.5458 11.2175 16.3697 12.5334C16.2278 13.5937 15.9237 14.4912 15.2139 15.2078L15.2063 15.2155C14.4878 15.9238 13.5901 16.2278 12.5297 16.3697C11.2151 16.5457 9.87133 16.5062 8.5484 16.5062H7.96165C6.63742 16.5062 5.29246 16.5459 3.97662 16.3697C2.91633 16.2278 2.01876 15.9236 1.30224 15.2139L1.29453 15.2062C0.586212 14.4878 0.282212 13.5901 0.140282 12.5297C-0.0356784 11.2151 0.00382623 9.87139 0.00382623 8.54836V7.96161C0.00382623 6.63748 -0.0358434 5.29247 0.140282 3.97662C0.282193 2.91634 0.586331 2.01876 1.2961 1.30225L1.30372 1.29454C2.02217 0.58622 2.91985 0.28221 3.98028 0.140281C5.29493 -0.0356712 6.63862 0.00382446 7.96165 0.00382446ZM2.78734 5.0262C2.87535 9.31682 5.02065 11.8912 8.78319 11.8912H8.78869H9.00322V9.43784C10.3839 9.57536 11.4291 10.5875 11.8471 11.8912H13.7999C13.5996 11.1504 13.2445 10.4604 12.7581 9.8669C12.2717 9.27337 11.665 8.78966 10.978 8.4477C11.5936 8.07282 12.1253 7.575 12.5399 6.98531C12.9544 6.39567 13.2429 5.72687 13.3873 5.0207H11.6161C11.231 6.38489 10.0869 7.62258 9.00322 7.7381V5.0262H7.22647V9.77889C6.12631 9.50385 4.74012 8.17266 4.67961 5.0262H2.78734Z" fill="white"/>
</svg>
